<?xml version="1.0" encoding="UTF-8"?>
<svg id="Layer_1" data-name="Layer 1" xmlns="http://www.w3.org/2000/svg" viewBox="0 0 69.65 69.65">
  <defs>
    <style>
      .cls-1 {
        fill: #70c8b7;
      }

      .cls-1, .cls-2 {
        stroke-width: 0px;
      }

      .cls-2 {
        fill: #ffebc0;
        fill-rule: evenodd;
      }
    </style>
  </defs>
  <circle class="cls-1" cx="34.83" cy="34.83" r="34.83" transform="translate(-10.68 15.98) rotate(-22.5)"/>
  <path class="cls-2" d="M34.85,18.93c-3.85,0-4.24.41-6.23.41-1.66,0-6.65-4.08-9.14-4.08s-5.4,1.47-5.4,5.71v4.89c0,1.28.47,5.22,2.29,4.17-2.15,2.55-2.37,5.53-2.34,8.41-.58.17-1.17.36-1.75.55-1.78.61-3.67,1.39-4.52,1.94-.43.28-.74.72-.85,1.23-.11.51-.01,1.04.27,1.47.28.44.72.74,1.23.85.51.11,1.03.01,1.47-.27.41-.26,1.88-.91,3.66-1.53l.59-.2c.12,1.13.42,2.17.86,3.1l-.06.03c-1.07.56-2.06,1.21-2.69,1.63l-.29.19c-.43.28-.74.72-.85,1.23-.11.51-.01,1.04.27,1.47.28.44.72.74,1.23.85.51.11,1.03.01,1.47-.27l.34-.22c.64-.42,1.45-.95,2.34-1.42.21-.11.41-.21.6-.3,4.5,4.23,12.59,5.6,17.48,5.6s12.98-1.37,17.48-5.6c.19.09.39.19.6.3.89.47,1.71,1,2.34,1.42l.34.22c.43.28.96.38,1.47.27.51-.11.95-.42,1.23-.85.28-.44.38-.97.27-1.47-.11-.51-.41-.95-.85-1.23l-.29-.19c-.87-.58-1.77-1.13-2.69-1.63l-.06-.03c.44-.94.74-1.97.86-3.1l.59.2c1.79.61,3.26,1.26,3.67,1.53.43.27.96.35,1.45.24.5-.11.93-.42,1.2-.85.28-.43.37-.95.27-1.45-.1-.5-.39-.94-.81-1.23-.85-.55-2.74-1.33-4.52-1.94-.58-.2-1.16-.38-1.75-.56.03-2.88-.19-5.85-2.34-8.41,1.82,1.05,2.29-2.88,2.29-4.17v-4.89c0-4.24-2.91-5.71-5.4-5.71s-7.48,4.08-9.13,4.08c-2,0-2.38-.41-6.23-.41ZM33.09,42.91c.53-.18,1.15-.26,1.76-.26s1.23.08,1.76.26c.26.09.57.23.85.45.19.15.35.33.46.55.11.21.17.45.18.69,0,.6-.36,1.02-.64,1.24-.28.22-.6.37-.85.45-.53.18-1.15.26-1.76.26s-1.23-.08-1.76-.26c-.31-.1-.6-.26-.86-.45-.19-.15-.35-.33-.46-.55-.11-.21-.17-.45-.18-.69,0-.6.36-1.02.64-1.24.28-.22.6-.37.86-.45ZM40.49,34.83c.36-.59,1.06-1.3,2.11-1.3s1.75.71,2.11,1.3c.37.62.55,1.37.55,2.12s-.18,1.49-.55,2.12c-.35.6-1.06,1.31-2.11,1.31s-1.75-.71-2.11-1.3c-.37-.64-.56-1.38-.55-2.12,0-.75.18-1.5.55-2.12ZM24.99,34.83c.36-.59,1.06-1.3,2.11-1.3s1.75.71,2.11,1.3c.37.62.55,1.37.55,2.12s-.18,1.49-.55,2.12c-.35.6-1.06,1.31-2.11,1.31s-1.75-.71-2.11-1.3c-.37-.64-.56-1.38-.55-2.12,0-.75.18-1.5.55-2.12Z"/>
</svg>