<?xml version="1.0" encoding="UTF-8"?>
<svg id="Layer_1" data-name="Layer 1" xmlns="http://www.w3.org/2000/svg" viewBox="0 0 69.65 69.65">
  <defs>
    <style>
      .cls-1 {
        fill: #ffebc0;
        fill-rule: evenodd;
      }

      .cls-1, .cls-2 {
        stroke-width: 0px;
      }

      .cls-2 {
        fill: #fabf1a;
      }
    </style>
  </defs>
  <circle class="cls-2" cx="34.83" cy="34.83" r="34.83"/>
  <g>
    <path class="cls-1" d="M26.47,19.73l-3.27,7.95s-2.39,5.99-3.37,11.84c-.14,1-.21,2-.22,3.01,0,3.86,1.7,5.69,3.98,6.71,2.56,1.15,6.35,1.52,11.23,1.52s8.68-.38,11.23-1.52c2.28-1.02,3.98-2.86,3.98-6.71,0-.96-.08-1.97-.23-3.01-.98-5.85-3.37-11.84-3.37-11.84l-3.27-7.95c-2.72-.54-5.53-.82-8.35-.85-2.4,0-5.42.27-8.35.85ZM55.03,42.53c0-.8-.05-1.6-.14-2.43l-.02-.14.36-.06c2.82-.46,4.89-1.51,6.14-3.02.39-.47.69-.97.91-1.49.73-1.74.56-3.67,0-5.44-.7-2.08-1.81-4.08-3.32-5.93-1.42-1.77-3.13-3.38-4.83-4.41-2.59-1.58-6.05-2.65-9.44-3.34-3.22-.64-6.54-.98-9.88-1.01-3.34.03-6.66.37-9.88,1.02-3.39.68-6.85,1.75-9.44,3.33-1.7,1.03-3.41,2.64-4.83,4.41-1.5,1.85-2.62,3.85-3.31,5.93-.31.96-.48,1.94-.49,2.92,0,1.12.24,2.23.86,3.26,1.19,1.99,3.57,3.34,7.04,3.83h0s-.02.14-.02.14h0c-.09.83-.14,1.64-.14,2.43,0,4.76,2.23,7.95,6.35,9.8,3.84,1.72,8.9,2.06,13.86,2.06s10.02-.34,13.86-2.06c4.12-1.85,6.35-5.04,6.35-9.8ZM30.15,42.54c.73,1.21,2.22,2.14,3.07,2.54.96.46,2.25.46,3.21,0,.85-.41,2.34-1.33,3.07-2.54.17-.29.25-.6.21-.92-.03-.31-.17-.62-.4-.88-.36-.41-.9-.71-1.54-.85-.65-.14-1.69-.3-2.94-.3s-2.29.16-2.94.3c-.64.14-1.18.44-1.54.85-.23.27-.37.57-.4.88-.03.31.04.63.21.92Z"/>
    <g>
      <path class="cls-1" d="M26.32,30.55c.36-.59,1.06-1.3,2.11-1.3s1.75.71,2.11,1.3c.37.62.55,1.37.55,2.12s-.18,1.49-.55,2.12c-.35.6-1.06,1.31-2.11,1.31s-1.75-.71-2.11-1.3c-.37-.64-.56-1.38-.55-2.12,0-.75.18-1.5.55-2.12Z"/>
      <path class="cls-1" d="M39.12,30.55c.36-.59,1.06-1.3,2.11-1.3s1.75.71,2.11,1.3c.37.62.55,1.37.55,2.12s-.18,1.49-.55,2.12c-.35.6-1.06,1.31-2.11,1.31s-1.75-.71-2.11-1.3c-.37-.64-.56-1.38-.55-2.12,0-.75.18-1.5.55-2.12Z"/>
    </g>
  </g>
</svg>